<svg xmlns="http://www.w3.org/2000/svg" viewBox="0 0 760 180" role="img" aria-labelledby="t"><title id="t">Calibre &amp; Co. Watchmaker's Workbench</title><g transform="translate(16 18) scale(1.42)"><path fill="#111411" d="M78 12C55 4 31 10 18 29C11 39 9 52 12 64C16 83 33 94 51 93C70 92 86 82 95 66C85 75 74 80 62 80C42 80 29 67 28 51C27 34 40 20 58 18C72 16 84 22 93 31C90 23 85 17 78 12Z"/><path fill="#111411" d="M16 31C28 12 56 2 82 13C89 16 94 21 97 27C80 17 62 13 45 16C32 18 22 23 16 31Z"/></g><line x1="168" y1="32" x2="168" y2="148" stroke="#aeb6ad" stroke-width="1"/><text x="205" y="88" fill="#111411" font-family="Inter,Arial,sans-serif" font-size="46" font-weight="500" letter-spacing="8">CALIBRE &amp; CO.</text><text x="208" y="127" fill="#687067" font-family="Inter,Arial,sans-serif" font-size="15" font-weight="600" letter-spacing="6">WATCHMAKER'S WORKBENCH</text></svg>